<?xml version="1.0" encoding="UTF-8"?>
<svg width="507px" height="661px" viewBox="0 0 507 661" version="1.1" xmlns="http://www.w3.org/2000/svg" xmlns:xlink="http://www.w3.org/1999/xlink">
    <title>9F7E6542-D8CF-4366-83AC-8B8404299031</title>
    <defs>
        <rect id="path-1" x="0" y="0" width="375" height="124"></rect>
    </defs>
    <g id="Landing" stroke="none" stroke-width="1" fill="none" fill-rule="evenodd">
        <g id="SM-Staffing" transform="translate(0.000000, -1054.000000)">
            <g id="fondo" transform="translate(0.000000, 1054.000000)">
                <rect id="Rectangle" fill="#00ABC2" x="0" y="0" width="375" height="425"></rect>
                <g id="Mask" transform="translate(0.000000, 301.000000)">
                    <mask id="mask-2" fill="white">
                        <use xlink:href="#path-1"></use>
                    </mask>
                    <use fill-opacity="0" fill="#D8D8D8" xlink:href="#path-1"></use>
                    <g mask="url(#mask-2)" fill-rule="nonzero" id="Path">
                        <g transform="translate(12.500000, 20.500000)">
                            <polygon fill="#FFFFFF" points="309.0352 285.466427 247.22816 249.784449 309.0352 214.102472 370.831633 249.784449"></polygon>
                            <polygon fill="#DADADA" points="370.831633 178.420494 370.831633 249.784449 309.0352 214.102472 309.0352 142.72791"></polygon>
                            <polygon fill="#DDDDDD" points="370.831633 178.420494 432.64928 142.72791 432.64928 214.102472 370.831633 249.784449"></polygon>
                            <polygon fill="#E7E7E7" points="370.831633 178.420494 309.0352 142.72791 370.831633 107.045932 432.64928 142.72791"></polygon>
                            <polygon fill="#007881" points="370.831633 321.148404 309.0352 285.466427 370.831633 249.784449 432.64928 285.466427"></polygon>
                            <polygon fill="#00ABC2" points="309.0352 71.3639549 309.0352 142.72791 247.22816 107.045932 247.22816 35.6819775"></polygon>
                            <polygon fill="#00646B" points="309.0352 71.3639549 370.831633 35.6819775 370.831633 107.045932 309.0352 142.72791"></polygon>
                            <polygon fill="#16E4FF" points="309.0352 71.3639549 247.22816 35.6819775 309.0352 0 370.831633 35.6819775"></polygon>
                            <polygon fill="#EAEAEA" points="185.42112 214.102472 185.42112 285.466427 123.61408 249.784449 123.61408 178.420494"></polygon>
                            <polygon fill="#EFEFEF" points="185.42112 214.102472 247.22816 178.420494 247.22816 249.784449 185.42112 285.466427"></polygon>
                            <polygon fill="#00D2EE" points="185.42112 214.102472 123.61408 178.420494 185.42112 142.72791 247.22816 178.420494"></polygon>
                            <polygon fill="#E4E4E4" points="247.22816 178.420494 247.22816 249.784449 185.42112 214.102472 185.42112 142.72791"></polygon>
                            <polygon fill="#E9E9E9" points="247.22816 178.420494 309.0352 142.72791 309.0352 214.102472 247.22816 249.784449"></polygon>
                            <polygon fill="#00D2EE" points="247.22816 178.420494 185.42112 142.72791 247.22816 107.045932 309.0352 142.72791"></polygon>
                            <polygon fill="#EBEBEB" points="185.42112 142.72791 185.42112 214.102472 123.61408 178.420494 123.61408 107.045932"></polygon>
                            <polygon fill="#7DB54A" points="185.42112 142.72791 247.22816 107.045932 247.22816 178.420494 185.42112 214.102472"></polygon>
                            <polygon fill="#00D2EE" points="185.42112 142.72791 123.61408 107.045932 185.42112 71.3639549 247.22816 107.045932"></polygon>
                            <polygon fill="#FFFFFF" points="123.61408 35.6819775 185.42112 0 185.42112 71.3639549 123.61408 107.045932"></polygon>
                            <polygon fill="#E4E4E4" points="185.42112 71.3639549 185.42112 142.72791 123.61408 107.045932 123.61408 35.6819775"></polygon>
                            <polygon fill="#80D136" points="185.42112 71.3639549 247.22816 35.6819775 247.22816 107.045932 185.42112 142.72791"></polygon>
                            <polygon fill="#7DB54A" points="185.42112 71.3639549 123.61408 35.6819775 185.42112 0 247.22816 35.6819775"></polygon>
                            <polygon fill="#EAEAEA" points="123.61408 249.784449 123.61408 321.148404 61.8070401 285.466427 61.8070401 214.102472"></polygon>
                            <polygon fill="#F0F0F0" points="123.61408 249.784449 185.42112 214.102472 185.42112 285.466427 123.61408 321.148404"></polygon>
                            <polygon fill="#F9F9F9" points="123.61408 249.784449 61.8070401 214.102472 123.61408 178.420494 185.42112 214.102472"></polygon>
                            <polygon fill-opacity="0.540844897" fill="#FFFFFF" points="216.319337 303.307416 216.319337 339 185.42112 321.148404 185.42112 285.466427"></polygon>
                            <polygon fill="#7DB54A" points="154.512297 303.307416 154.512297 339 123.61408 321.148404 123.61408 285.466427"></polygon>
                            <polygon fill="#80D136" points="154.512297 303.307416 185.42112 285.466427 185.42112 321.148404 154.512297 339"></polygon>
                            <polygon fill="#FFFFFF" points="154.512297 303.307416 123.61408 285.466427 154.512297 267.625438 185.42112 285.466427"></polygon>
                            <polygon fill="#EEEEEE" points="185.42112 249.784449 185.42112 285.466427 154.512297 267.625438 154.512297 231.943461"></polygon>
                            <polygon fill="#00D2EE" points="185.42112 249.784449 216.319337 231.943461 216.319337 267.625438 185.42112 285.466427"></polygon>
                            <polygon fill="#FDFDFD" points="185.42112 249.784449 154.512297 231.943461 185.42112 214.102472 216.319337 231.943461"></polygon>
                            <polygon fill="#007881" points="154.512297 267.625438 154.512297 303.307416 123.61408 285.466427 123.61408 249.784449"></polygon>
                            <polygon fill="#F3F3F3" points="154.512297 267.625438 185.42112 249.784449 185.42112 285.466427 154.512297 303.307416"></polygon>
                            <polygon fill="#FCFCFC" points="154.512297 267.625438 123.61408 249.784449 154.512297 231.943461 185.42112 249.784449"></polygon>
                            <polygon fill="#00ABC2" points="185.42112 285.466427 185.42112 321.148404 154.512297 303.307416 154.512297 267.625438"></polygon>
                            <polygon fill="#E1E1E1" points="185.42112 285.466427 154.512297 267.625438 185.42112 249.784449 216.319337 267.625438"></polygon>
                            <polygon fill="#E3E3E3" points="278.126377 267.625438 278.126377 303.307416 247.22816 285.466427 247.22816 249.784449"></polygon>
                            <polygon fill="#E9E9E9" points="278.126377 267.625438 309.0352 249.784449 309.0352 285.466427 278.126377 303.307416"></polygon>
                            <polygon fill="#7DB54A" points="278.126377 267.625438 247.22816 249.784449 278.126377 231.943461 309.0352 249.784449"></polygon>
                            <polygon fill="#EAEAEA" points="247.22816 214.102472 247.22816 249.784449 216.319337 231.943461 216.319337 196.261483"></polygon>
                            <polygon fill="#F0F0F0" points="247.22816 214.102472 278.126377 196.261483 278.126377 231.943461 247.22816 249.784449"></polygon>
                            <polygon fill="#00D2EE" points="247.22816 214.102472 216.319337 196.261483 247.22816 178.420494 278.126377 196.261483"></polygon>
                            <polygon fill="#007881" points="278.126377 231.943461 278.126377 267.625438 247.22816 249.784449 247.22816 214.102472"></polygon>
                            <polygon fill="#E4E4E4" points="278.126377 231.943461 309.0352 214.102472 309.0352 249.784449 278.126377 267.625438"></polygon>
                            <polygon fill="#EFEFEF" points="278.126377 231.943461 247.22816 214.102472 278.126377 196.261483 309.0352 214.102472"></polygon>
                            <polygon fill="#E0E0E0" points="216.319337 231.943461 216.319337 267.625438 185.42112 249.784449 185.42112 214.102472"></polygon>
                            <polygon fill="#00ABC2" points="216.319337 231.943461 247.22816 214.102472 247.22816 249.784449 216.319337 267.625438"></polygon>
                            <polygon fill="#F0F0F0" points="216.319337 231.943461 185.42112 214.102472 216.319337 196.261483 247.22816 214.102472"></polygon>
                            <polygon fill="#00646B" points="247.22816 285.466427 216.319337 267.625438 247.22816 249.784449 278.126377 267.625438"></polygon>
                            <polygon fill="#E8E8E8" points="309.0352 178.420494 309.0352 214.102472 278.126377 196.261483 278.126377 160.579506"></polygon>
                            <polygon fill="#EEEEEE" points="309.0352 178.420494 339.933417 160.579506 339.933417 196.261483 309.0352 214.102472"></polygon>
                            <polygon fill="#F6F6F6" points="309.0352 178.420494 278.126377 160.579506 309.0352 142.72791 339.933417 160.579506"></polygon>
                            <polygon fill="#E9E9E9" points="339.933417 196.261483 339.933417 231.943461 309.0352 214.102472 309.0352 178.420494"></polygon>
                            <polygon fill="#EFEFEF" points="339.933417 196.261483 370.831633 178.420494 370.831633 214.102472 339.933417 231.943461"></polygon>
                            <polygon fill="#FFF13B" points="339.933417 196.261483 309.0352 178.420494 339.933417 160.579506 370.831633 178.420494"></polygon>
                            <polygon fill="#E1E1E1" points="278.126377 196.261483 278.126377 231.943461 247.22816 214.102472 247.22816 178.420494"></polygon>
                            <polygon fill="#E6E6E6" points="278.126377 196.261483 309.0352 178.420494 309.0352 214.102472 278.126377 231.943461"></polygon>
                            <polygon fill="#EEEEEE" points="278.126377 196.261483 247.22816 178.420494 278.126377 160.579506 309.0352 178.420494"></polygon>
                            <polygon fill="#E1E1E1" points="309.0352 249.784449 309.0352 285.466427 278.126377 267.625438 278.126377 231.943461"></polygon>
                            <polygon fill="#E6E6E6" points="309.0352 249.784449 339.933417 231.943461 339.933417 267.625438 309.0352 285.466427"></polygon>
                            <polygon fill="#EEEEEE" points="309.0352 249.784449 278.126377 231.943461 309.0352 214.102472 339.933417 231.943461"></polygon>
                            <polygon fill="#007881" points="309.0352 214.102472 309.0352 249.784449 278.126377 231.943461 278.126377 196.261483"></polygon>
                            <polygon fill="#EAEAEA" points="309.0352 214.102472 339.933417 196.261483 339.933417 231.943461 309.0352 249.784449"></polygon>
                            <polygon fill="#EAEAEA" points="309.0352 214.102472 278.126377 196.261483 309.0352 178.420494 339.933417 196.261483"></polygon>
                            <polygon fill="#E2E2E2" points="401.740457 267.625438 401.740457 303.307416 370.831633 285.466427 370.831633 249.784449"></polygon>
                            <polygon fill="#E8E8E8" points="401.740457 267.625438 432.64928 249.784449 432.64928 285.466427 401.740457 303.307416"></polygon>
                            <polygon fill="#7DB54A" points="401.740457 267.625438 370.831633 249.784449 401.740457 231.943461 432.64928 249.784449"></polygon>
                            <polygon fill="#E2E2E2" points="339.933417 267.625438 339.933417 303.307416 309.0352 285.466427 309.0352 249.784449"></polygon>
                            <polygon fill="#E8E8E8" points="339.933417 267.625438 370.831633 249.784449 370.831633 285.466427 339.933417 303.307416"></polygon>
                            <polygon fill="#F0F0F0" points="339.933417 267.625438 309.0352 249.784449 339.933417 231.943461 370.831633 249.784449"></polygon>
                            <polygon fill="#00ABC2" points="339.933417 231.943461 339.933417 267.625438 309.0352 249.784449 309.0352 214.102472"></polygon>
                            <polygon fill="#EAEAEA" points="339.933417 231.943461 370.831633 214.102472 370.831633 249.784449 339.933417 267.625438"></polygon>
                            <polygon fill="#F2F2F2" points="339.933417 231.943461 309.0352 214.102472 339.933417 196.261483 370.831633 214.102472"></polygon>
                            <polygon fill="#00ABC2" points="401.740457 231.943461 401.740457 267.625438 370.831633 249.784449 370.831633 214.102472"></polygon>
                            <polygon fill="#EAEAEA" points="401.740457 231.943461 432.64928 214.102472 432.64928 249.784449 401.740457 267.625438"></polygon>
                            <polygon fill="#00D2EE" points="401.740457 231.943461 370.831633 214.102472 401.740457 196.261483 432.64928 214.102472"></polygon>
                            <polygon fill="#E6E6E6" points="463.547497 196.261483 463.547497 231.943461 432.64928 214.102472 432.64928 178.420494"></polygon>
                            <polygon fill="#EBEBEB" points="463.547497 196.261483 494.45632 178.420494 494.45632 214.102472 463.547497 231.943461"></polygon>
                            <polygon fill="#FFF13B" points="463.547497 196.261483 432.64928 178.420494 463.547497 160.579506 494.45632 178.420494"></polygon>
                            <polygon fill="#E0E0E0" points="432.64928 249.784449 432.64928 285.466427 401.740457 267.625438 401.740457 231.943461"></polygon>
                            <polygon fill="#00ABC2" points="432.64928 249.784449 463.547497 231.943461 463.547497 267.625438 432.64928 285.466427"></polygon>
                            <polygon fill="#7DB54A" points="432.64928 249.784449 401.740457 231.943461 432.64928 214.102472 463.547497 231.943461"></polygon>
                            <polygon fill="#E6E6E6" points="463.547497 160.568899 463.547497 196.261483 432.64928 178.420494 432.64928 142.72791"></polygon>
                            <polygon fill="#EAEAEA" points="463.547497 160.568899 494.45632 142.72791 494.45632 178.420494 463.547497 196.261483"></polygon>
                            <polygon fill="#FFF13B" points="463.547497 160.568899 432.64928 142.72791 463.547497 124.886921 494.45632 142.72791"></polygon>
                            <polygon fill="#00ABC2" points="463.547497 124.886921 463.547497 160.568899 432.64928 142.72791 432.64928 107.045932"></polygon>
                            <polygon fill="#EAEAEA" points="463.547497 124.886921 494.45632 107.045932 494.45632 142.72791 463.547497 160.568899"></polygon>
                            <polygon fill="#FFF13B" points="463.547497 124.886921 432.64928 107.045932 463.547497 89.2049437 494.45632 107.045932"></polygon>
                            <polygon fill="#00ABC2" points="401.740457 124.886921 401.740457 160.568899 370.831633 142.72791 370.831633 107.045932"></polygon>
                            <polygon fill="#EAEAEA" points="401.740457 124.886921 432.64928 107.045932 432.64928 142.72791 401.740457 160.568899"></polygon>
                            <polygon fill="#F6F6F6" points="401.740457 124.886921 370.831633 107.045932 401.740457 89.2049437 432.64928 107.045932"></polygon>
                            <polygon fill="#E2E2E2" points="432.64928 142.72791 432.64928 178.420494 401.740457 160.568899 401.740457 124.886921"></polygon>
                            <polygon fill="#00ABC2" points="432.64928 142.72791 463.547497 124.886921 463.547497 160.568899 432.64928 178.420494"></polygon>
                            <polygon fill="#007881" points="432.64928 142.72791 401.740457 124.886921 432.64928 107.045932 463.547497 124.886921"></polygon>
                            <polygon fill="#7DB54A" points="401.740457 89.2049437 401.740457 124.886921 370.831633 107.045932 370.831633 71.3639549"></polygon>
                            <polygon fill="#E8E8E8" points="401.740457 89.2049437 432.64928 71.3639549 432.64928 107.045932 401.740457 124.886921"></polygon>
                            <polygon fill="#00D2EE" points="401.740457 89.2049437 370.831633 71.3639549 401.740457 53.5229662 432.64928 71.3639549"></polygon>
                            <polygon fill="#00ABC2" points="401.740457 53.5229662 401.740457 89.2049437 370.831633 71.3639549 370.831633 35.6819775"></polygon>
                            <polygon fill="#FFFFFF" points="401.740457 53.5229662 432.64928 35.6819775 432.64928 71.3639549 401.740457 89.2049437"></polygon>
                            <polygon fill="#FFFFFF" points="401.740457 53.5229662 370.831633 35.6819775 401.740457 17.8409887 432.64928 35.6819775"></polygon>
                            <polygon fill="#E3E3E3" points="432.64928 107.045932 432.64928 142.72791 401.740457 124.886921 401.740457 89.2049437"></polygon>
                            <polygon fill="#E7E7E7" points="432.64928 107.045932 463.547497 89.2049437 463.547497 124.886921 432.64928 142.72791"></polygon>
                            <polygon fill="#F2F2F2" points="432.64928 107.045932 401.740457 89.2049437 432.64928 71.3639549 463.547497 89.2049437"></polygon>
                            <polygon fill="#E6E6E6" points="432.64928 71.3639549 432.64928 107.045932 401.740457 89.2049437 401.740457 53.5229662"></polygon>
                            <polygon fill="#F3F3F3" points="432.64928 71.3639549 463.547497 53.5229662 463.547497 89.2049437 432.64928 107.045932"></polygon>
                            <polygon fill="#7DB54A" points="432.64928 71.3639549 401.740457 53.5229662 432.64928 35.6819775 463.547497 53.5229662"></polygon>
                            <polygon fill="#EAEAEA" points="278.126377 160.568899 278.126377 196.261483 247.22816 178.420494 247.22816 142.72791"></polygon>
                            <polygon fill="#F0F0F0" points="278.126377 160.568899 309.0352 142.72791 309.0352 178.420494 278.126377 196.261483"></polygon>
                            <polygon fill="#00D2EE" points="278.126377 160.568899 247.22816 142.72791 278.126377 124.886921 309.0352 142.72791"></polygon>
                            <polygon fill="#E0E0E0" points="309.0352 107.045932 309.0352 142.72791 278.126377 124.886921 278.126377 89.2049437"></polygon>
                            <polygon fill="#00ABC2" points="309.0352 107.045932 339.933417 89.2049437 339.933417 124.886921 309.0352 142.72791"></polygon>
                            <polygon fill="#F8E815" points="309.0352 107.045932 278.126377 89.2049437 309.0352 71.3639549 339.933417 89.2049437"></polygon>
                            <polygon fill="#E0E0E0" points="309.0352 142.72791 309.0352 178.420494 278.126377 160.568899 278.126377 124.886921"></polygon>
                            <polygon fill="#00ABC2" points="309.0352 142.72791 339.933417 124.886921 339.933417 160.568899 309.0352 178.420494"></polygon>
                            <polygon fill="#EFEFEF" points="309.0352 142.72791 278.126377 124.886921 309.0352 107.045932 339.933417 124.886921"></polygon>
                            <polygon fill="#E8E8E8" points="278.126377 124.886921 278.126377 160.579506 247.22816 142.72791 247.22816 107.045932"></polygon>
                            <polygon fill="#EEEEEE" points="278.126377 124.886921 309.0352 107.045932 309.0352 142.72791 278.126377 160.579506"></polygon>
                            <polygon fill="#F6F6F6" points="278.126377 124.886921 247.22816 107.045932 278.126377 89.2049437 309.0352 107.045932"></polygon>
                            <polygon fill="#E7E7E7" points="216.319337 124.886921 216.319337 160.579506 185.42112 142.72791 185.42112 107.045932"></polygon>
                            <polygon fill="#EEEEEE" points="216.319337 124.886921 247.22816 107.045932 247.22816 142.72791 216.319337 160.579506"></polygon>
                            <polygon fill="#00D2EE" points="216.319337 124.886921 185.42112 107.045932 216.319337 89.2049437 247.22816 107.045932"></polygon>
                            <polygon fill="#00ABC2" points="278.126377 89.2049437 278.126377 124.886921 247.22816 107.045932 247.22816 71.3639549"></polygon>
                            <polygon fill="#00B8D1" points="278.126377 89.2049437 309.0352 71.3639549 309.0352 107.045932 278.126377 124.886921"></polygon>
                            <polygon fill="#00D2EE" points="278.126377 89.2049437 247.22816 71.3639549 278.126377 53.5229662 309.0352 71.3639549"></polygon>
                            <polygon fill="#00ABC2" points="216.319337 89.2049437 216.319337 124.886921 185.42112 107.045932 185.42112 71.3639549"></polygon>
                            <polygon fill="#EAEAEA" points="216.319337 89.2049437 247.22816 71.3639549 247.22816 107.045932 216.319337 124.886921"></polygon>
                            <polygon fill="#16E4FF" points="216.319337 89.2049437 185.42112 71.3639549 216.319337 53.5229662 247.22816 71.3639549"></polygon>
                            <polygon fill="#007881" points="247.22816 142.72791 247.22816 178.420494 216.319337 160.579506 216.319337 124.886921"></polygon>
                            <polygon fill="#E4E4E4" points="247.22816 142.72791 278.126377 124.886921 278.126377 160.579506 247.22816 178.420494"></polygon>
                            <polygon fill="#EEEEEE" points="247.22816 142.72791 216.319337 124.886921 247.22816 107.045932 278.126377 124.886921"></polygon>
                            <polygon fill="#7DB54A" points="247.22816 107.045932 247.22816 142.72791 216.319337 124.886921 216.319337 89.2049437"></polygon>
                            <polygon fill="#00ABC2" points="247.22816 107.045932 278.126377 89.2049437 278.126377 124.886921 247.22816 142.72791"></polygon>
                            <polygon fill="#80D136" points="247.22816 107.045932 216.319337 89.2049437 247.22816 71.3639549 278.126377 89.2049437"></polygon>
                            <polygon fill="#EBEBEB" points="154.512297 231.943461 154.512297 267.625438 123.61408 249.784449 123.61408 214.102472"></polygon>
                            <polygon fill="#7DB54A" points="154.512297 231.943461 185.42112 214.102472 185.42112 249.784449 154.512297 267.625438"></polygon>
                            <polygon fill="#00D2EE" points="154.512297 231.943461 123.61408 214.102472 154.512297 196.261483 185.42112 214.102472"></polygon>
                            <polygon fill="#EEEEEE" points="185.42112 178.420494 185.42112 214.102472 154.512297 196.261483 154.512297 160.579506"></polygon>
                            <polygon fill="#00D2EE" points="185.42112 178.420494 216.319337 160.579506 216.319337 196.261483 185.42112 214.102472"></polygon>
                            <polygon fill="#F8E815" points="185.42112 178.420494 154.512297 160.579506 185.42112 142.72791 216.319337 160.579506"></polygon>
                            <polygon fill="#EAEAEA" points="216.319337 196.261483 216.319337 231.943461 185.42112 214.102472 185.42112 178.420494"></polygon>
                            <polygon fill="#F0F0F0" points="216.319337 196.261483 247.22816 178.420494 247.22816 214.102472 216.319337 231.943461"></polygon>
                            <polygon fill="#00D2EE" points="216.319337 196.261483 185.42112 178.420494 216.319337 160.579506 247.22816 178.420494"></polygon>
                            <polygon fill="#E6E6E6" points="154.512297 196.261483 154.512297 231.943461 123.61408 214.102472 123.61408 178.420494"></polygon>
                            <polygon fill="#ECECEC" points="154.512297 196.261483 185.42112 178.420494 185.42112 214.102472 154.512297 231.943461"></polygon>
                            <polygon fill="#00D2EE" points="154.512297 196.261483 123.61408 178.420494 154.512297 160.579506 185.42112 178.420494"></polygon>
                            <polygon fill="#E6E6E6" points="154.512297 196.261483 154.512297 231.943461 123.61408 214.102472 123.61408 178.420494"></polygon>
                            <polygon fill="#ECECEC" points="154.512297 196.261483 185.42112 178.420494 185.42112 214.102472 154.512297 231.943461"></polygon>
                            <polygon fill="#00D2EE" points="154.512297 196.261483 123.61408 178.420494 154.512297 160.579506 185.42112 178.420494"></polygon>
                            <polygon fill="#EAEAEA" points="92.7052566 196.261483 92.7052566 231.943461 61.8070401 214.102472 61.8070401 178.420494"></polygon>
                            <polygon fill="#7DB54A" points="92.7052566 196.261483 123.61408 178.420494 123.61408 214.102472 92.7052566 231.943461"></polygon>
                            <polygon fill="#FBFBFB" points="92.7052566 196.261483 61.8070401 178.420494 92.7052566 160.579506 123.61408 178.420494"></polygon>
                            <polygon fill="#ECECEC" points="92.7052566 160.579506 92.7052566 196.261483 61.8070401 178.420494 61.8070401 142.72791"></polygon>
                            <polygon fill="#F2F2F2" points="92.7052566 160.579506 123.61408 142.72791 123.61408 178.420494 92.7052566 196.261483"></polygon>
                            <polygon fill="#FBFBFB" points="92.7052566 160.579506 61.8070401 142.72791 92.7052566 124.886921 123.61408 142.72791"></polygon>
                            <polygon fill="#ECECEC" points="123.61408 214.102472 123.61408 249.784449 92.7052566 231.943461 92.7052566 196.261483"></polygon>
                            <polygon fill="#7DB54A" points="123.61408 214.102472 154.512297 196.261483 154.512297 231.943461 123.61408 249.784449"></polygon>
                            <polygon fill="#00D2EE" points="123.61408 214.102472 92.7052566 196.261483 123.61408 178.420494 154.512297 196.261483"></polygon>
                            <polygon fill="#E6E6E6" points="154.512297 124.886921 154.512297 160.579506 123.61408 142.72791 123.61408 107.045932"></polygon>
                            <polygon fill="#ECECEC" points="154.512297 124.886921 185.42112 107.045932 185.42112 142.72791 154.512297 160.579506"></polygon>
                            <polygon fill="#00D2EE" points="154.512297 124.886921 123.61408 107.045932 154.512297 89.2049437 185.42112 107.045932"></polygon>
                            <polygon fill="#E9E9E9" points="92.7052566 124.886921 92.7052566 160.579506 61.8070401 142.72791 61.8070401 107.045932"></polygon>
                            <polygon fill="#EFEFEF" points="92.7052566 124.886921 123.61408 107.045932 123.61408 142.72791 92.7052566 160.579506"></polygon>
                            <polygon fill="#FFF13B" points="92.7052566 124.886921 61.8070401 107.045932 92.7052566 89.2049437 123.61408 107.045932"></polygon>
                            <polygon fill="#E7E7E7" points="123.61408 71.3639549 123.61408 107.045932 92.7052566 89.2049437 92.7052566 53.5229662"></polygon>
                            <polygon fill="#007881" points="123.61408 71.3639549 154.512297 53.5229662 154.512297 89.2049437 123.61408 107.045932"></polygon>
                            <polygon fill="#80D136" points="123.61408 71.3639549 92.7052566 53.5229662 123.61408 35.6819775 154.512297 53.5229662"></polygon>
                            <polygon fill="#EAEAEA" points="92.7052566 89.2049437 92.7052566 124.886921 61.8070401 107.045932 61.8070401 71.3639549"></polygon>
                            <polygon fill="#F0F0F0" points="92.7052566 89.2049437 123.61408 71.3639549 123.61408 107.045932 92.7052566 124.886921"></polygon>
                            <polygon fill="#F9F9F9" points="92.7052566 89.2049437 61.8070401 71.3639549 92.7052566 53.5229662 123.61408 71.3639549"></polygon>
                            <polygon fill="#EBEBEB" points="123.61408 142.72791 123.61408 178.420494 92.7052566 160.579506 92.7052566 124.886921"></polygon>
                            <polygon fill="#7DB54A" points="123.61408 142.72791 154.512297 124.886921 154.512297 160.579506 123.61408 178.420494"></polygon>
                            <polygon fill="#01C0DA" points="123.61408 142.72791 92.7052566 124.886921 123.61408 107.045932 154.512297 124.886921"></polygon>
                            <polygon fill="#E7E7E7" points="92.7052566 231.943461 92.7052566 267.625438 61.8070401 249.784449 61.8070401 214.102472"></polygon>
                            <polygon fill="#F9F9F9" points="92.7052566 231.943461 123.61408 214.102472 123.61408 249.784449 92.7052566 267.625438"></polygon>
                            <polygon fill="#00D2EE" points="92.7052566 231.943461 61.8070401 214.102472 92.7052566 196.261483 123.61408 214.102472"></polygon>
                            <polygon fill="#EAEAEA" points="92.7052566 196.261483 92.7052566 231.943461 61.8070401 214.102472 61.8070401 178.420494"></polygon>
                            <polygon fill="#7DB54A" points="92.7052566 196.261483 123.61408 178.420494 123.61408 214.102472 92.7052566 231.943461"></polygon>
                            <polygon fill="#FBFBFB" points="92.7052566 196.261483 61.8070401 178.420494 92.7052566 160.579506 123.61408 178.420494"></polygon>
                            <polygon fill="#007881" points="30.8982165 196.261483 30.8982165 231.943461 0 214.102472 0 178.420494"></polygon>
                            <polygon fill="#F9F9F9" points="30.8982165 196.261483 61.8070401 178.420494 61.8070401 214.102472 30.8982165 231.943461"></polygon>
                            <polygon fill="#00D2EE" points="30.8982165 196.261483 0 178.420494 30.8982165 160.579506 61.8070401 178.420494"></polygon>
                            <polygon fill="#7DB54A" points="61.8070401 249.784449 61.8070401 285.466427 30.8982165 267.625438 30.8982165 231.943461"></polygon>
                            <polygon fill="#F6F6F6" points="61.8070401 249.784449 92.7052566 231.943461 92.7052566 267.625438 61.8070401 285.466427"></polygon>
                            <polygon fill="#F8E815" points="61.8070401 249.784449 30.8982165 231.943461 61.8070401 214.102472 92.7052566 231.943461"></polygon>
                            <polygon fill="#EAEAEA" points="92.7052566 89.2049437 92.7052566 124.886921 61.8070401 107.045932 61.8070401 71.3639549"></polygon>
                            <polygon fill="#80D136" points="92.7052566 89.2049437 123.61408 71.3639549 123.61408 107.045932 92.7052566 124.886921"></polygon>
                            <polygon fill="#E0E0E0" points="92.7052566 89.2049437 61.8070401 71.3639549 92.7052566 53.5229662 123.61408 71.3639549"></polygon>
                            <polygon fill="#F8E815" points="30.8982165 89.2049437 0 71.3639549 30.8982165 53.5229662 61.8070401 71.3639549"></polygon>
                            <polygon fill="#00D2EE" points="61.8070401 35.6819775 92.7052566 17.8409887 92.7052566 53.5229662 61.8070401 71.3639549"></polygon>
                            <polygon fill="#007881" points="61.8070401 35.6819775 30.8982165 17.8409887 61.8070401 0 92.7052566 17.8409887"></polygon>
                            <polygon fill="#007881" points="61.8070401 107.045932 61.8070401 142.72791 30.8982165 124.886921 30.8982165 89.2049437"></polygon>
                            <polygon fill="#F2F2F2" points="61.8070401 107.045932 92.7052566 89.2049437 92.7052566 124.886921 61.8070401 142.72791"></polygon>
                            <polygon fill="#00D2EE" points="61.8070401 107.045932 30.8982165 89.2049437 61.8070401 71.3639549 92.7052566 89.2049437"></polygon>
                            <polygon fill="#ECECEC" points="92.7052566 160.568899 92.7052566 196.261483 61.8070401 178.420494 61.8070401 142.72791"></polygon>
                            <polygon fill="#F2F2F2" points="92.7052566 160.568899 123.61408 142.72791 123.61408 178.420494 92.7052566 196.261483"></polygon>
                            <polygon fill="#FBFBFB" points="92.7052566 160.568899 61.8070401 142.72791 92.7052566 124.886921 123.61408 142.72791"></polygon>
                            <polygon fill="#EEEEEE" points="30.8982165 160.568899 30.8982165 196.261483 0 178.420494 0 142.72791"></polygon>
                            <polygon fill="#00D2EE" points="30.8982165 160.568899 61.8070401 142.72791 61.8070401 178.420494 30.8982165 196.261483"></polygon>
                            <polygon fill="#FFF13B" points="30.8982165 160.568899 0 142.72791 30.8982165 124.886921 61.8070401 142.72791"></polygon>
                            <polygon fill="#007881" points="61.8070401 107.045932 61.8070401 142.72791 30.8982165 124.886921 30.8982165 89.2049437"></polygon>
                            <polygon fill="#F2F2F2" points="61.8070401 107.045932 92.7052566 89.2049437 92.7052566 124.886921 61.8070401 142.72791"></polygon>
                            <polygon fill="#00D2EE" points="61.8070401 107.045932 30.8982165 89.2049437 61.8070401 71.3639549 92.7052566 89.2049437"></polygon>
                            <polygon fill="#EEEEEE" points="61.8070401 178.420494 61.8070401 214.102472 30.8982165 196.261483 30.8982165 160.568899"></polygon>
                            <polygon fill="#00D2EE" points="61.8070401 178.420494 92.7052566 160.568899 92.7052566 196.261483 61.8070401 214.102472"></polygon>
                            <polygon fill="#F8E815" points="61.8070401 178.420494 30.8982165 160.568899 61.8070401 142.72791 92.7052566 160.568899"></polygon>
                            <polygon fill="#00ABC2" points="401.740457 124.886921 401.740457 160.579506 370.831633 142.72791 370.831633 107.045932"></polygon>
                            <polygon fill="#EAEAEA" points="401.740457 124.886921 432.64928 107.045932 432.64928 142.72791 401.740457 160.579506"></polygon>
                            <polygon fill="#F6F6F6" points="401.740457 124.886921 370.831633 107.045932 401.740457 89.2049437 432.64928 107.045932"></polygon>
                            <polygon fill="#E4E4E4" points="339.933417 124.886921 339.933417 160.579506 309.0352 142.72791 309.0352 107.045932"></polygon>
                            <polygon fill="#EAEAEA" points="339.933417 124.886921 370.831633 107.045932 370.831633 142.72791 339.933417 160.579506"></polygon>
                            <polygon fill="#7DB54A" points="339.933417 124.886921 309.0352 107.045932 339.933417 89.2049437 370.831633 107.045932"></polygon>
                            <polygon fill="#E7E7E7" points="370.831633 142.72791 370.831633 178.420494 339.933417 160.579506 339.933417 124.886921"></polygon>
                            <polygon fill="#EEEEEE" points="370.831633 142.72791 401.740457 124.886921 401.740457 160.579506 370.831633 178.420494"></polygon>
                            <polygon fill="#FFF13B" points="370.831633 142.72791 339.933417 124.886921 370.831633 107.045932 401.740457 124.886921"></polygon>
                        </g>
                    </g>
                </g>
            </g>
        </g>
    </g>
</svg>